<svg width="185" height="46" viewBox="0 0 185 46" fill="none" xmlns="http://www.w3.org/2000/svg">
<path d="M64.8021 27.7638L62.5446 25.1688C62.4884 25.1828 62.418 25.1899 62.3336 25.1899C62.2633 25.2039 62.193 25.211 62.1227 25.211C60.6317 25.211 59.3518 24.9226 58.2829 24.346C57.2139 23.7552 56.3911 22.9043 55.8144 21.7931C55.2377 20.6679 54.9494 19.3177 54.9494 17.7424C54.9494 16.0827 55.2588 14.6972 55.8777 13.5861C56.4966 12.4749 57.3897 11.6381 58.5571 11.0754C59.7245 10.5128 61.1311 10.2315 62.7767 10.2315C64.4364 10.2315 65.8499 10.5128 67.0174 11.0754C68.1848 11.6381 69.0779 12.4749 69.6968 13.5861C70.3156 14.6972 70.6251 16.0827 70.6251 17.7424C70.6251 19.388 70.3156 20.7664 69.6968 21.8775C69.0779 22.9887 68.1918 23.8326 67.0384 24.4093L70.3508 27.7638H64.8021ZM62.7767 21.772C63.283 21.772 63.7261 21.6947 64.1059 21.54C64.4997 21.3712 64.8232 21.1391 65.0764 20.8437C65.3436 20.5484 65.5405 20.1967 65.6671 19.7888C65.7937 19.3669 65.857 18.9098 65.857 18.4175V17.0672C65.857 16.5749 65.7937 16.1249 65.6671 15.717C65.5405 15.295 65.3436 14.9363 65.0764 14.641C64.8232 14.3456 64.4997 14.1206 64.1059 13.9658C63.7261 13.7971 63.283 13.7127 62.7767 13.7127C62.2703 13.7127 61.8203 13.7971 61.4264 13.9658C61.0467 14.1206 60.7302 14.3456 60.477 14.641C60.2239 14.9363 60.034 15.295 59.9074 15.717C59.7808 16.1249 59.7175 16.5749 59.7175 17.0672V18.4175C59.7175 18.9098 59.7808 19.3669 59.9074 19.7888C60.034 20.1967 60.2239 20.5484 60.477 20.8437C60.7302 21.1391 61.0467 21.3712 61.4264 21.54C61.8203 21.6947 62.2703 21.772 62.7767 21.772ZM73.1359 25V10.4847H82.229C83.3121 10.4847 84.2122 10.7027 84.9296 11.1387C85.6609 11.5748 86.2095 12.1444 86.5752 12.8477C86.9409 13.5509 87.1237 14.3104 87.1237 15.1262C87.1237 16.0545 86.9057 16.8844 86.4697 17.6158C86.0337 18.3331 85.4429 18.9098 84.6975 19.3458L87.5457 25H82.3134L80.0982 20.1264H77.7985V25H73.1359ZM77.7985 16.8984H81.0687C81.4344 16.8984 81.7438 16.7578 81.997 16.4765C82.2501 16.1811 82.3767 15.7943 82.3767 15.3161C82.3767 15.0207 82.3205 14.7605 82.2079 14.5355C82.0954 14.3104 81.9407 14.1346 81.7438 14.008C81.5469 13.8674 81.3218 13.7971 81.0687 13.7971H77.7985V16.8984ZM95.0567 28.8398C94.5503 28.8398 94.0721 28.7343 93.622 28.5233C93.186 28.3124 92.8344 28.01 92.5671 27.6161C92.2999 27.2223 92.1663 26.7441 92.1663 26.1815C92.1663 25.5626 92.335 25.0633 92.6726 24.6835C93.0242 24.2897 93.4321 23.9943 93.8963 23.7974C93.5587 23.6427 93.2845 23.4177 93.0735 23.1223C92.8766 22.8269 92.7781 22.4894 92.7781 22.1096C92.7781 21.5892 92.968 21.1672 93.3477 20.8437C93.7275 20.5202 94.1706 20.3093 94.6769 20.2108C94.1846 19.8873 93.7978 19.4794 93.5165 18.9871C93.2493 18.4948 93.1157 17.9393 93.1157 17.3204C93.1157 16.5749 93.2915 15.935 93.6431 15.4005C93.9947 14.852 94.5152 14.423 95.2044 14.1135C95.9076 13.8041 96.7586 13.6494 97.7572 13.6494C98.1932 13.6494 98.6011 13.6845 98.9809 13.7549C99.3747 13.8111 99.7263 13.8955 100.036 14.008C100.528 13.7549 100.88 13.4525 101.091 13.1008C101.302 12.7351 101.428 12.3976 101.47 12.0881H103.622C103.622 12.5523 103.524 12.9742 103.327 13.354C103.144 13.7197 102.884 14.0291 102.546 14.2823C102.223 14.5214 101.829 14.6902 101.365 14.7887C101.717 15.1122 101.977 15.4919 102.146 15.9279C102.328 16.3499 102.42 16.814 102.42 17.3204C102.42 18.0518 102.251 18.6918 101.913 19.2403C101.576 19.7888 101.063 20.2178 100.373 20.5273C99.6982 20.8367 98.8613 20.9914 97.8627 20.9914H96.1327C95.7951 20.9914 95.5208 21.0617 95.3098 21.2024C95.1129 21.343 95.0145 21.554 95.0145 21.8353C95.0145 22.0744 95.1129 22.2713 95.3098 22.4261C95.5068 22.5808 95.767 22.6581 96.0905 22.6581H100.774C101.59 22.6581 102.265 22.9324 102.8 23.481C103.334 24.0154 103.601 24.7046 103.601 25.5485C103.601 26.1674 103.44 26.723 103.116 27.2153C102.807 27.7216 102.364 28.1154 101.787 28.3967C101.224 28.6921 100.57 28.8398 99.8248 28.8398H95.0567ZM95.774 27.2153H99.8037C100.099 27.2153 100.366 27.159 100.605 27.0465C100.845 26.934 101.034 26.7722 101.175 26.5612C101.316 26.3643 101.386 26.1393 101.386 25.8861C101.386 25.4642 101.252 25.1336 100.985 24.8945C100.732 24.6554 100.416 24.5358 100.036 24.5358H95.774C95.3802 24.5358 95.0496 24.6695 94.7824 24.9367C94.5152 25.1899 94.3815 25.5063 94.3815 25.8861C94.3815 26.2799 94.5081 26.5964 94.7613 26.8355C95.0285 27.0887 95.3661 27.2153 95.774 27.2153ZM97.7783 19.4091C98.6081 19.4091 99.227 19.2262 99.6349 18.8605C100.043 18.4808 100.247 17.9674 100.247 17.3204C100.247 16.6593 100.043 16.153 99.6349 15.8014C99.227 15.4357 98.6081 15.2528 97.7783 15.2528C96.9484 15.2528 96.3296 15.4357 95.9217 15.8014C95.5138 16.153 95.3098 16.6593 95.3098 17.3204C95.3098 17.7424 95.3942 18.1151 95.563 18.4386C95.7459 18.748 96.0201 18.9871 96.3858 19.1559C96.7656 19.3247 97.2297 19.4091 97.7783 19.4091ZM109.894 25.2532C108.754 25.2532 107.798 25.0492 107.024 24.6413C106.265 24.2194 105.688 23.5794 105.294 22.7214C104.9 21.8635 104.703 20.7734 104.703 19.4513C104.703 18.1151 104.9 17.025 105.294 16.1811C105.688 15.3231 106.272 14.6902 107.045 14.2823C107.819 13.8604 108.782 13.6494 109.936 13.6494C110.991 13.6494 111.87 13.8533 112.573 14.2612C113.29 14.655 113.832 15.2598 114.197 16.0756C114.563 16.8914 114.746 17.9182 114.746 19.1559V19.9998H106.961C106.989 20.7875 107.109 21.4485 107.32 21.983C107.531 22.5034 107.847 22.8902 108.269 23.1434C108.705 23.3825 109.254 23.5021 109.915 23.5021C110.323 23.5021 110.688 23.4528 111.012 23.3544C111.335 23.2418 111.609 23.0871 111.835 22.8902C112.06 22.6792 112.235 22.4331 112.362 22.1518C112.489 21.8564 112.552 21.5259 112.552 21.1602H114.704C114.704 21.8213 114.591 22.405 114.366 22.9113C114.141 23.4177 113.811 23.8467 113.375 24.1983C112.953 24.5358 112.446 24.7961 111.856 24.9789C111.265 25.1617 110.611 25.2532 109.894 25.2532ZM107.003 18.3964H112.446C112.446 17.8478 112.383 17.3907 112.256 17.025C112.144 16.6453 111.975 16.3358 111.75 16.0967C111.525 15.8576 111.258 15.6888 110.948 15.5904C110.639 15.4779 110.287 15.4216 109.894 15.4216C109.303 15.4216 108.796 15.5271 108.374 15.7381C107.967 15.949 107.65 16.2796 107.425 16.7297C107.2 17.1657 107.059 17.7213 107.003 18.3964ZM116.976 25V13.9026H118.791L118.981 15.4849H119.128C119.396 15.077 119.712 14.7394 120.078 14.4722C120.443 14.205 120.844 14.001 121.28 13.8604C121.73 13.7197 122.223 13.6494 122.757 13.6494C123.46 13.6494 124.079 13.776 124.614 14.0291C125.148 14.2682 125.563 14.6621 125.858 15.2106C126.168 15.7592 126.323 16.4976 126.323 17.4259V25H124.128V17.7635C124.128 17.3415 124.072 16.9899 123.96 16.7086C123.861 16.4273 123.714 16.2022 123.517 16.0334C123.32 15.8646 123.088 15.7451 122.82 15.6748C122.553 15.6044 122.258 15.5693 121.934 15.5693C121.428 15.5693 120.964 15.6959 120.542 15.949C120.134 16.1881 119.803 16.5257 119.55 16.9617C119.297 17.3978 119.17 17.9111 119.17 18.5019V25H116.976ZM133.67 25.2532C132.531 25.2532 131.574 25.0492 130.8 24.6413C130.041 24.2194 129.464 23.5794 129.07 22.7214C128.677 21.8635 128.48 20.7734 128.48 19.4513C128.48 18.1151 128.677 17.025 129.07 16.1811C129.464 15.3231 130.048 14.6902 130.822 14.2823C131.595 13.8604 132.559 13.6494 133.712 13.6494C134.767 13.6494 135.646 13.8533 136.349 14.2612C137.067 14.655 137.608 15.2598 137.974 16.0756C138.339 16.8914 138.522 17.9182 138.522 19.1559V19.9998H130.737C130.765 20.7875 130.885 21.4485 131.096 21.983C131.307 22.5034 131.623 22.8902 132.045 23.1434C132.481 23.3825 133.03 23.5021 133.691 23.5021C134.099 23.5021 134.464 23.4528 134.788 23.3544C135.111 23.2418 135.386 23.0871 135.611 22.8902C135.836 22.6792 136.012 22.4331 136.138 22.1518C136.265 21.8564 136.328 21.5259 136.328 21.1602H138.48C138.48 21.8213 138.368 22.405 138.143 22.9113C137.917 23.4177 137.587 23.8467 137.151 24.1983C136.729 24.5358 136.223 24.7961 135.632 24.9789C135.041 25.1617 134.387 25.2532 133.67 25.2532ZM130.779 18.3964H136.223C136.223 17.8478 136.159 17.3907 136.033 17.025C135.92 16.6453 135.751 16.3358 135.526 16.0967C135.301 15.8576 135.034 15.6888 134.725 15.5904C134.415 15.4779 134.064 15.4216 133.67 15.4216C133.079 15.4216 132.573 15.5271 132.151 15.7381C131.743 15.949 131.426 16.2796 131.201 16.7297C130.976 17.1657 130.836 17.7213 130.779 18.3964ZM140.753 25V13.9026H142.567L142.757 15.6959H142.883C143.01 15.3442 143.172 15.0137 143.369 14.7043C143.58 14.3948 143.847 14.1417 144.17 13.9447C144.508 13.7478 144.916 13.6494 145.394 13.6494C145.619 13.6494 145.816 13.6705 145.985 13.7127C146.168 13.7549 146.308 13.79 146.407 13.8182V15.8857H145.668C145.218 15.8857 144.817 15.9561 144.466 16.0967C144.128 16.2374 143.84 16.4484 143.601 16.7297C143.376 16.9969 143.207 17.3274 143.094 17.7213C142.996 18.1151 142.947 18.5581 142.947 19.0504V25H140.753ZM150.646 25.2532C150.294 25.2532 149.915 25.211 149.507 25.1266C149.099 25.0422 148.712 24.8875 148.346 24.6624C147.995 24.4374 147.706 24.128 147.481 23.7341C147.256 23.3262 147.144 22.7988 147.144 22.1518C147.144 21.3923 147.32 20.7664 147.671 20.2741C148.023 19.7818 148.515 19.395 149.148 19.1137C149.781 18.8324 150.534 18.6355 151.406 18.523C152.292 18.4104 153.255 18.3542 154.296 18.3542V17.2571C154.296 16.8914 154.233 16.5679 154.106 16.2866C153.994 16.0053 153.776 15.7873 153.452 15.6326C153.143 15.4779 152.693 15.4005 152.102 15.4005C151.511 15.4005 151.047 15.4779 150.709 15.6326C150.386 15.7732 150.154 15.9561 150.013 16.1811C149.887 16.3921 149.823 16.6242 149.823 16.8773V17.1938H147.714C147.699 17.1235 147.692 17.0532 147.692 16.9828C147.692 16.9125 147.692 16.8281 147.692 16.7297C147.692 16.0686 147.875 15.513 148.241 15.0629C148.621 14.5988 149.148 14.2471 149.823 14.008C150.498 13.7689 151.279 13.6494 152.165 13.6494C153.122 13.6494 153.916 13.79 154.549 14.0713C155.196 14.3386 155.681 14.7254 156.005 15.2317C156.328 15.7381 156.49 16.3499 156.49 17.0672V22.7003C156.49 22.9676 156.553 23.1575 156.68 23.27C156.821 23.3825 156.982 23.4388 157.165 23.4388H157.925V24.9156C157.756 24.9859 157.545 25.0563 157.292 25.1266C157.039 25.1969 156.743 25.2321 156.406 25.2321C156.026 25.2321 155.703 25.1617 155.435 25.0211C155.182 24.8945 154.971 24.7117 154.802 24.4726C154.648 24.2194 154.542 23.9381 154.486 23.6286H154.359C154.106 23.9521 153.797 24.2405 153.431 24.4937C153.079 24.7328 152.671 24.9156 152.207 25.0422C151.743 25.1828 151.223 25.2532 150.646 25.2532ZM151.258 23.4388C151.694 23.4388 152.095 23.3755 152.461 23.2489C152.84 23.1082 153.164 22.9183 153.431 22.6792C153.698 22.4261 153.909 22.1307 154.064 21.7931C154.219 21.4415 154.296 21.0617 154.296 20.6539V19.9154C153.326 19.9154 152.475 19.9717 151.743 20.0842C151.012 20.1967 150.442 20.4077 150.034 20.7171C149.626 21.0125 149.422 21.4274 149.422 21.9619C149.422 22.2854 149.493 22.5597 149.633 22.7847C149.774 22.9957 149.985 23.1575 150.266 23.27C150.548 23.3825 150.878 23.4388 151.258 23.4388ZM162.204 25.2532C161.571 25.2532 161.071 25.1336 160.706 24.8945C160.354 24.6413 160.101 24.3249 159.946 23.9451C159.805 23.5513 159.735 23.1364 159.735 22.7003V15.717H158.343V13.9026H159.777L160.178 10.8012H161.929V13.9026H163.934V15.717H161.929V22.4472C161.929 22.7707 162 23.0168 162.14 23.1856C162.281 23.3544 162.513 23.4388 162.837 23.4388H163.934V24.9156C163.793 24.9719 163.617 25.0211 163.406 25.0633C163.209 25.1196 163.005 25.1617 162.794 25.1899C162.583 25.2321 162.386 25.2532 162.204 25.2532ZM170.594 25.2532C169.441 25.2532 168.463 25.0492 167.661 24.6413C166.874 24.2194 166.276 23.5794 165.868 22.7214C165.474 21.8635 165.277 20.7734 165.277 19.4513C165.277 18.1151 165.474 17.025 165.868 16.1811C166.276 15.3231 166.874 14.6902 167.661 14.2823C168.463 13.8604 169.441 13.6494 170.594 13.6494C171.775 13.6494 172.76 13.8604 173.548 14.2823C174.335 14.6902 174.926 15.3231 175.32 16.1811C175.728 17.025 175.932 18.1151 175.932 19.4513C175.932 20.7734 175.728 21.8635 175.32 22.7214C174.926 23.5794 174.335 24.2194 173.548 24.6413C172.76 25.0492 171.775 25.2532 170.594 25.2532ZM170.594 23.4388C171.297 23.4388 171.874 23.3051 172.324 23.0379C172.774 22.7566 173.105 22.3346 173.316 21.772C173.541 21.2094 173.653 20.4991 173.653 19.6412V19.2614C173.653 18.4034 173.541 17.6931 173.316 17.1305C173.105 16.5679 172.774 16.153 172.324 15.8857C171.874 15.6044 171.297 15.4638 170.594 15.4638C169.905 15.4638 169.335 15.6044 168.885 15.8857C168.435 16.153 168.097 16.5679 167.872 17.1305C167.661 17.6931 167.556 18.4034 167.556 19.2614V19.6412C167.556 20.4991 167.661 21.2094 167.872 21.772C168.097 22.3346 168.435 22.7566 168.885 23.0379C169.335 23.3051 169.905 23.4388 170.594 23.4388ZM178.168 25V13.9026H179.983L180.172 15.6959H180.299C180.426 15.3442 180.587 15.0137 180.784 14.7043C180.995 14.3948 181.263 14.1417 181.586 13.9447C181.924 13.7478 182.332 13.6494 182.81 13.6494C183.035 13.6494 183.232 13.6705 183.4 13.7127C183.583 13.7549 183.724 13.79 183.822 13.8182V15.8857H183.084C182.634 15.8857 182.233 15.9561 181.881 16.0967C181.544 16.2374 181.256 16.4484 181.016 16.7297C180.791 16.9969 180.623 17.3274 180.51 17.7213C180.412 18.1151 180.362 18.5581 180.362 19.0504V25H178.168Z" fill="#323232"/>
<path d="M56.9161 38.1211C56.5461 38.1211 56.2199 38.0471 55.9373 37.8991C55.6615 37.7444 55.4261 37.5089 55.231 37.1928H55.1604L55.0897 38H54.7366V30.7047H55.2209V33.419H55.2916C55.4194 33.2038 55.5707 33.0356 55.7456 32.9145C55.9205 32.7934 56.1089 32.706 56.3107 32.6522C56.5125 32.5983 56.7143 32.5714 56.9161 32.5714C57.3533 32.5714 57.7267 32.669 58.0361 32.8641C58.3523 33.0591 58.5944 33.3551 58.7626 33.752C58.9308 34.1489 59.0149 34.6568 59.0149 35.2756C59.0149 35.9483 58.9308 36.4932 58.7626 36.9103C58.6012 37.3273 58.3657 37.6334 58.0563 37.8285C57.7468 38.0235 57.3668 38.1211 56.9161 38.1211ZM56.9161 37.6872C57.2121 37.6872 57.4778 37.6233 57.7132 37.4955C57.9554 37.361 58.1471 37.1356 58.2884 36.8194C58.4296 36.4966 58.5003 36.0559 58.5003 35.4976V35.1949C58.5003 34.6702 58.4363 34.2498 58.3085 33.9336C58.1807 33.6107 57.9924 33.3753 57.7435 33.2273C57.5013 33.0793 57.202 33.0053 56.8455 33.0053C56.6773 33.0053 56.499 33.0322 56.3107 33.086C56.1223 33.1331 55.9441 33.234 55.7759 33.3888C55.6144 33.5367 55.4799 33.7587 55.3723 34.0547C55.2714 34.3507 55.2209 34.7442 55.2209 35.2353V35.4371C55.2209 35.9214 55.2781 36.3317 55.3925 36.6681C55.5068 36.9977 55.6884 37.25 55.9373 37.4249C56.1929 37.5998 56.5192 37.6872 56.9161 37.6872ZM62.0935 38.1211C61.6159 38.1211 61.2055 38.0235 60.8625 37.8285C60.5261 37.6267 60.2672 37.3206 60.0855 36.9103C59.9106 36.4999 59.8232 35.9786 59.8232 35.3463C59.8232 34.7072 59.9106 34.1859 60.0855 33.7823C60.2672 33.3719 60.5329 33.0692 60.8827 32.8741C61.2325 32.6723 61.663 32.5714 62.1742 32.5714C62.6585 32.5714 63.0622 32.669 63.385 32.8641C63.7147 33.0591 63.9636 33.3383 64.1317 33.7016C64.2999 34.0581 64.384 34.4819 64.384 34.9729V35.4774H60.3378C60.3378 36.0156 60.4084 36.4495 60.5497 36.7791C60.6977 37.102 60.9028 37.334 61.1652 37.4753C61.4343 37.6166 61.7538 37.6872 62.1238 37.6872C62.4332 37.6872 62.6955 37.6468 62.9108 37.5661C63.1261 37.4854 63.301 37.3778 63.4355 37.2432C63.5768 37.1087 63.681 36.954 63.7483 36.7791C63.8223 36.6042 63.8626 36.4259 63.8694 36.2443H64.3335C64.3268 36.473 64.2797 36.6984 64.1923 36.9203C64.1115 37.1423 63.9837 37.3441 63.8088 37.5258C63.6339 37.7074 63.4052 37.852 63.1227 37.9596C62.8402 38.0673 62.4971 38.1211 62.0935 38.1211ZM60.3378 35.0436H63.8795C63.8795 34.6601 63.8357 34.3406 63.7483 34.085C63.6608 33.8226 63.5364 33.6141 63.375 33.4594C63.2202 33.2979 63.0352 33.1836 62.82 33.1163C62.6115 33.0423 62.3794 33.0053 62.1238 33.0053C61.7538 33.0053 61.4376 33.0793 61.1753 33.2273C60.9197 33.3686 60.7212 33.5906 60.58 33.8933C60.4387 34.1892 60.358 34.5727 60.3378 35.0436ZM67.1409 38.1211C66.8046 38.1211 66.5052 38.0874 66.2429 38.0202C65.9873 37.9596 65.772 37.8655 65.5971 37.7377C65.4289 37.6031 65.3011 37.4383 65.2137 37.2432C65.1262 37.0482 65.0825 36.8194 65.0825 36.5571C65.0825 36.5302 65.0825 36.4999 65.0825 36.4663C65.0825 36.4326 65.0859 36.4024 65.0926 36.3755H65.5769C65.5702 36.4158 65.5668 36.4495 65.5668 36.4764C65.5668 36.5033 65.5668 36.5302 65.5668 36.5571C65.5668 36.8531 65.6307 37.0852 65.7585 37.2533C65.8931 37.4148 66.0814 37.5291 66.3236 37.5964C66.5725 37.6569 66.8617 37.6872 67.1914 37.6872C67.4739 37.6872 67.7228 37.6468 67.938 37.5661C68.16 37.4787 68.3316 37.3576 68.4526 37.2029C68.5804 37.0414 68.6444 36.8463 68.6444 36.6176C68.6444 36.3351 68.5636 36.1232 68.4022 35.9819C68.2407 35.834 68.0322 35.723 67.7766 35.649C67.5277 35.5682 67.2687 35.4875 66.9996 35.4068C66.7911 35.3463 66.5826 35.2824 66.374 35.2151C66.1722 35.1411 65.9873 35.0536 65.8191 34.9527C65.6576 34.8451 65.5265 34.7106 65.4256 34.5491C65.3314 34.3877 65.2843 34.1825 65.2843 33.9336C65.2843 33.7318 65.3247 33.5468 65.4054 33.3787C65.4861 33.2105 65.6038 33.0659 65.7585 32.9448C65.92 32.8237 66.1184 32.7329 66.3539 32.6723C66.5893 32.6051 66.8617 32.5714 67.1712 32.5714C67.5412 32.5714 67.8472 32.6152 68.0894 32.7026C68.3316 32.7833 68.5199 32.8977 68.6544 33.0457C68.7957 33.1869 68.8932 33.3417 68.9471 33.5098C69.0076 33.678 69.0379 33.8495 69.0379 34.0244C69.0379 34.0446 69.0379 34.0682 69.0379 34.0951C69.0379 34.122 69.0345 34.1522 69.0278 34.1859H68.5434V34.0244C68.5434 33.8832 68.5098 33.7352 68.4425 33.5805C68.382 33.419 68.2508 33.2845 68.049 33.1769C67.8539 33.0625 67.5512 33.0053 67.1409 33.0053C66.9122 33.0053 66.7137 33.0255 66.5456 33.0659C66.3774 33.1062 66.2361 33.1668 66.1218 33.2475C66.0074 33.3215 65.92 33.4157 65.8594 33.53C65.8056 33.6444 65.7787 33.7789 65.7787 33.9336C65.7787 34.1623 65.846 34.3372 65.9805 34.4583C66.1151 34.5727 66.29 34.6635 66.5052 34.7308C66.7205 34.798 66.9492 34.872 67.1914 34.9527C67.4201 35.0267 67.6488 35.1007 67.8775 35.1747C68.1129 35.2487 68.3248 35.3395 68.5132 35.4472C68.7083 35.5548 68.863 35.6961 68.9773 35.871C69.0917 36.0391 69.1489 36.2611 69.1489 36.5369C69.1489 36.7858 69.0984 37.0078 68.9975 37.2029C68.8966 37.3979 68.7553 37.5661 68.5737 37.7074C68.3988 37.8419 68.1869 37.9428 67.938 38.0101C67.6959 38.0841 67.4302 38.1211 67.1409 38.1211ZM71.3552 38.111C71.1466 38.111 70.9818 38.0774 70.8607 38.0101C70.7397 37.9428 70.6522 37.8453 70.5984 37.7175C70.5513 37.5829 70.5278 37.4282 70.5278 37.2533V33.1264H69.7811V32.6925H70.5278L70.6287 31.2193H71.0121V32.6925H72.0918V33.1264H71.0121V37.1121C71.0121 37.3139 71.0323 37.4619 71.0726 37.556C71.1197 37.6435 71.2374 37.6872 71.4258 37.6872H72.0918V37.9697C72.0245 38.0034 71.9471 38.0303 71.8597 38.0505C71.7722 38.0706 71.6848 38.0841 71.5973 38.0908C71.5099 38.1043 71.4292 38.111 71.3552 38.111ZM80.6793 39.3117L79.3373 38.0605C79.2162 38.0807 79.0917 38.0942 78.9639 38.1009C78.8428 38.1144 78.715 38.1211 78.5805 38.1211C77.8675 38.1211 77.2553 37.9865 76.7441 37.7175C76.2396 37.4484 75.8494 37.0482 75.5736 36.5167C75.3045 35.9853 75.17 35.3261 75.17 34.539C75.17 33.7453 75.3045 33.086 75.5736 32.5614C75.8494 32.0299 76.2396 31.6297 76.7441 31.3606C77.2553 31.0915 77.8675 30.957 78.5805 30.957C79.3003 30.957 79.9124 31.0915 80.4169 31.3606C80.9282 31.6297 81.3183 32.0299 81.5874 32.5614C81.8632 33.086 82.0011 33.7453 82.0011 34.539C82.0011 35.4404 81.8195 36.1737 81.4562 36.7387C81.093 37.3038 80.5885 37.6973 79.9427 37.9193L81.3654 39.3117H80.6793ZM78.5805 37.6368C78.9976 37.6368 79.381 37.5829 79.7308 37.4753C80.0806 37.3677 80.3799 37.1961 80.6288 36.9607C80.8844 36.7185 81.0795 36.4091 81.2141 36.0324C81.3553 35.649 81.4259 35.1848 81.4259 34.6399V34.4381C81.4259 33.8933 81.3553 33.4325 81.2141 33.0558C81.0795 32.6723 80.8844 32.3629 80.6288 32.1275C80.3799 31.8853 80.0806 31.7104 79.7308 31.6028C79.381 31.4951 78.9976 31.4413 78.5805 31.4413C78.1634 31.4413 77.78 31.4951 77.4302 31.6028C77.0871 31.7104 76.7878 31.8853 76.5322 32.1275C76.2833 32.3629 76.0882 32.6723 75.9469 33.0558C75.8124 33.4325 75.7451 33.8933 75.7451 34.4381V34.6399C75.7451 35.1848 75.8124 35.649 75.9469 36.0324C76.0882 36.4091 76.2833 36.7185 76.5322 36.9607C76.7878 37.1961 77.0871 37.3677 77.4302 37.4753C77.78 37.5829 78.1634 37.6368 78.5805 37.6368ZM83.5845 38V31.0781H87.217C87.6475 31.0781 88.004 31.1622 88.2865 31.3303C88.5691 31.4985 88.781 31.7239 88.9222 32.0064C89.0635 32.2889 89.1341 32.6084 89.1341 32.965C89.1341 33.4695 89.0164 33.8933 88.781 34.2363C88.5455 34.5727 88.2495 34.8014 87.893 34.9225L89.3763 38H88.7709L87.338 35.0234H84.1293V38H83.5845ZM84.1293 34.539H87.1362C87.5869 34.539 87.9401 34.3978 88.1957 34.1153C88.4581 33.8327 88.5892 33.4459 88.5892 32.9549C88.5892 32.6656 88.5354 32.4201 88.4278 32.2183C88.3202 32.0098 88.1587 31.8483 87.9435 31.734C87.7282 31.6196 87.4591 31.5624 87.1362 31.5624H84.1293V34.539ZM93.9268 39.8364C93.6578 39.8364 93.4122 39.7759 93.1902 39.6548C92.9683 39.5404 92.7934 39.379 92.6655 39.1705C92.5377 38.9619 92.4738 38.7299 92.4738 38.4742C92.4738 38.1783 92.5478 37.9193 92.6958 37.6973C92.8505 37.4686 93.0591 37.3004 93.3214 37.1928C93.1331 37.1188 92.9918 37.0044 92.8976 36.8497C92.8102 36.695 92.7664 36.5369 92.7664 36.3755C92.7664 36.1535 92.8438 35.9584 92.9985 35.7902C93.1532 35.6153 93.355 35.501 93.6039 35.4472C93.3954 35.2992 93.2239 35.1175 93.0893 34.9023C92.9615 34.6803 92.8976 34.4449 92.8976 34.196C92.8976 33.8933 92.9683 33.6208 93.1095 33.3787C93.2508 33.1298 93.4694 32.9347 93.7654 32.7934C94.0681 32.6454 94.4515 32.5714 94.9157 32.5714C95.1511 32.5714 95.3664 32.5916 95.5614 32.632C95.7565 32.6656 95.9314 32.7194 96.0861 32.7934C96.3216 32.7329 96.5133 32.6253 96.6613 32.4705C96.816 32.3091 96.9203 32.1039 96.9741 31.855H97.4786C97.4651 32.0232 97.4147 32.1947 97.3272 32.3696C97.2465 32.5378 97.1288 32.6824 96.9741 32.8035C96.8261 32.9246 96.6445 32.9986 96.4292 33.0255C96.6041 33.1937 96.7319 33.3787 96.8126 33.5805C96.8934 33.7755 96.9337 33.9807 96.9337 34.196C96.9337 34.492 96.8631 34.7644 96.7218 35.0133C96.5806 35.2555 96.3619 35.4505 96.066 35.5985C95.77 35.7465 95.3866 35.8205 94.9157 35.8205H94.0681C93.8394 35.8205 93.6477 35.8642 93.4929 35.9517C93.3382 36.0324 93.2609 36.1804 93.2609 36.3956C93.2609 36.584 93.3416 36.7286 93.503 36.8295C93.6712 36.9237 93.8764 36.9708 94.1185 36.9708H96.0861C96.4696 36.9708 96.779 37.1053 97.0144 37.3744C97.2566 37.6368 97.3777 37.963 97.3777 38.3532C97.3777 38.629 97.3104 38.8779 97.1759 39.0998C97.0481 39.3286 96.8665 39.5068 96.631 39.6346C96.4023 39.7692 96.1366 39.8364 95.8339 39.8364H93.9268ZM93.9571 39.4126H95.8137C96.0088 39.4126 96.187 39.3655 96.3485 39.2714C96.5099 39.1839 96.6377 39.0628 96.7319 38.9081C96.8328 38.7601 96.8833 38.5987 96.8833 38.4238C96.8833 38.1278 96.7992 37.8856 96.631 37.6973C96.4628 37.5089 96.2577 37.4148 96.0155 37.4148H93.9571C93.688 37.4148 93.4559 37.5157 93.2609 37.7175C93.0658 37.9126 92.9683 38.148 92.9683 38.4238C92.9683 38.7265 93.0658 38.9653 93.2609 39.1402C93.4559 39.3218 93.688 39.4126 93.9571 39.4126ZM94.9157 35.3866C95.4336 35.3866 95.8171 35.279 96.066 35.0637C96.3149 34.8485 96.4393 34.5592 96.4393 34.196C96.4393 33.8327 96.3149 33.5435 96.066 33.3282C95.8171 33.113 95.4336 33.0053 94.9157 33.0053C94.4044 33.0053 94.021 33.113 93.7654 33.3282C93.5165 33.5435 93.392 33.8327 93.392 34.196C93.392 34.418 93.4459 34.6198 93.5535 34.8014C93.6678 34.983 93.8394 35.1276 94.0681 35.2353C94.2968 35.3362 94.5793 35.3866 94.9157 35.3866ZM100.139 38.1211C99.6613 38.1211 99.2509 38.0235 98.9079 37.8285C98.5715 37.6267 98.3125 37.3206 98.1309 36.9103C97.956 36.4999 97.8686 35.9786 97.8686 35.3463C97.8686 34.7072 97.956 34.1859 98.1309 33.7823C98.3125 33.3719 98.5783 33.0692 98.928 32.8741C99.2778 32.6723 99.7084 32.5714 100.22 32.5714C100.704 32.5714 101.108 32.669 101.43 32.8641C101.76 33.0591 102.009 33.3383 102.177 33.7016C102.345 34.0581 102.429 34.4819 102.429 34.9729V35.4774H98.3832C98.3832 36.0156 98.4538 36.4495 98.5951 36.7791C98.7431 37.102 98.9482 37.334 99.2106 37.4753C99.4797 37.6166 99.7992 37.6872 100.169 37.6872C100.479 37.6872 100.741 37.6468 100.956 37.5661C101.171 37.4854 101.346 37.3778 101.481 37.2432C101.622 37.1087 101.726 36.954 101.794 36.7791C101.868 36.6042 101.908 36.4259 101.915 36.2443H102.379C102.372 36.473 102.325 36.6984 102.238 36.9203C102.157 37.1423 102.029 37.3441 101.854 37.5258C101.679 37.7074 101.451 37.852 101.168 37.9596C100.886 38.0673 100.542 38.1211 100.139 38.1211ZM98.3832 35.0436H101.925C101.925 34.6601 101.881 34.3406 101.794 34.085C101.706 33.8226 101.582 33.6141 101.42 33.4594C101.266 33.2979 101.081 33.1836 100.865 33.1163C100.657 33.0423 100.425 33.0053 100.169 33.0053C99.7992 33.0053 99.483 33.0793 99.2207 33.2273C98.965 33.3686 98.7666 33.5906 98.6253 33.8933C98.4841 34.1892 98.4034 34.5727 98.3832 35.0436ZM103.572 38V32.6925H103.925L103.986 33.5906H104.056C104.218 33.3148 104.396 33.1029 104.591 32.9549C104.793 32.8069 105.005 32.706 105.227 32.6522C105.449 32.5983 105.681 32.5714 105.923 32.5714C106.259 32.5714 106.552 32.6253 106.801 32.7329C107.05 32.8338 107.241 33.0053 107.376 33.2475C107.517 33.4897 107.588 33.8193 107.588 34.2363V38H107.103V34.2363C107.103 33.9807 107.07 33.7722 107.003 33.6107C106.935 33.4493 106.841 33.3248 106.72 33.2374C106.606 33.1499 106.468 33.0894 106.306 33.0558C106.152 33.0221 105.983 33.0053 105.802 33.0053C105.513 33.0053 105.233 33.076 104.964 33.2172C104.695 33.3585 104.477 33.567 104.308 33.8428C104.14 34.1119 104.056 34.4449 104.056 34.8417V38H103.572ZM110.939 38.1211C110.461 38.1211 110.051 38.0235 109.708 37.8285C109.371 37.6267 109.112 37.3206 108.931 36.9103C108.756 36.4999 108.668 35.9786 108.668 35.3463C108.668 34.7072 108.756 34.1859 108.931 33.7823C109.112 33.3719 109.378 33.0692 109.728 32.8741C110.078 32.6723 110.508 32.5714 111.019 32.5714C111.504 32.5714 111.907 32.669 112.23 32.8641C112.56 33.0591 112.809 33.3383 112.977 33.7016C113.145 34.0581 113.229 34.4819 113.229 34.9729V35.4774H109.183C109.183 36.0156 109.254 36.4495 109.395 36.7791C109.543 37.102 109.748 37.334 110.01 37.4753C110.279 37.6166 110.599 37.6872 110.969 37.6872C111.278 37.6872 111.541 37.6468 111.756 37.5661C111.971 37.4854 112.146 37.3778 112.281 37.2432C112.422 37.1087 112.526 36.954 112.593 36.7791C112.667 36.6042 112.708 36.4259 112.714 36.2443H113.179C113.172 36.473 113.125 36.6984 113.037 36.9203C112.957 37.1423 112.829 37.3441 112.654 37.5258C112.479 37.7074 112.25 37.852 111.968 37.9596C111.685 38.0673 111.342 38.1211 110.939 38.1211ZM109.183 35.0436H112.725C112.725 34.6601 112.681 34.3406 112.593 34.085C112.506 33.8226 112.382 33.6141 112.22 33.4594C112.065 33.2979 111.88 33.1836 111.665 33.1163C111.457 33.0423 111.224 33.0053 110.969 33.0053C110.599 33.0053 110.283 33.0793 110.02 33.2273C109.765 33.3686 109.566 33.5906 109.425 33.8933C109.284 34.1892 109.203 34.5727 109.183 35.0436ZM114.372 38V32.6925H114.735L114.785 33.6107H114.846C114.886 33.4493 114.95 33.2912 115.038 33.1365C115.132 32.9751 115.263 32.8405 115.431 32.7329C115.599 32.6253 115.811 32.5714 116.067 32.5714C116.161 32.5714 116.245 32.5782 116.319 32.5916C116.393 32.6051 116.447 32.6185 116.48 32.632V33.0558H116.198C115.949 33.0558 115.737 33.1062 115.562 33.2071C115.394 33.308 115.256 33.4426 115.149 33.6107C115.048 33.7789 114.974 33.9673 114.927 34.1758C114.879 34.3776 114.856 34.5828 114.856 34.7913V38H114.372ZM118.56 38.1211C118.318 38.1211 118.093 38.0908 117.884 38.0303C117.683 37.9765 117.504 37.8924 117.35 37.778C117.202 37.6569 117.084 37.5056 116.996 37.324C116.916 37.1423 116.875 36.9271 116.875 36.6782C116.875 36.3082 116.969 36.0089 117.158 35.7801C117.346 35.5514 117.609 35.3765 117.945 35.2555C118.281 35.1276 118.678 35.0436 119.136 35.0032C119.593 34.9561 120.087 34.9326 120.619 34.9326V34.1354C120.619 33.8933 120.572 33.6881 120.478 33.5199C120.39 33.3518 120.232 33.2239 120.003 33.1365C119.781 33.049 119.472 33.0053 119.075 33.0053C118.698 33.0053 118.399 33.0558 118.177 33.1567C117.962 33.2509 117.807 33.382 117.713 33.5502C117.625 33.7116 117.582 33.8933 117.582 34.0951V34.2666H117.117C117.111 34.233 117.107 34.1993 117.107 34.1657C117.107 34.1321 117.107 34.0917 117.107 34.0446C117.107 33.6948 117.195 33.4123 117.37 33.197C117.545 32.9818 117.79 32.8237 118.106 32.7228C118.429 32.6219 118.799 32.5714 119.216 32.5714C119.613 32.5714 119.949 32.632 120.225 32.7531C120.508 32.8674 120.723 33.0356 120.871 33.2576C121.026 33.4728 121.103 33.7352 121.103 34.0446V37.3542C121.103 37.482 121.123 37.5695 121.164 37.6166C121.204 37.6637 121.268 37.6872 121.355 37.6872H121.83V37.9697C121.709 38.0235 121.598 38.0605 121.497 38.0807C121.396 38.1009 121.302 38.111 121.214 38.111C121.032 38.111 120.898 38.0706 120.811 37.9899C120.73 37.9025 120.676 37.7881 120.649 37.6468C120.629 37.4989 120.619 37.3408 120.619 37.1726H120.548C120.414 37.3744 120.239 37.5459 120.023 37.6872C119.808 37.8285 119.576 37.9361 119.327 38.0101C119.078 38.0841 118.823 38.1211 118.56 38.1211ZM118.601 37.6872C118.829 37.6872 119.062 37.6502 119.297 37.5762C119.532 37.4955 119.748 37.3845 119.943 37.2432C120.145 37.102 120.306 36.9338 120.427 36.7387C120.555 36.5369 120.619 36.3149 120.619 36.0728V35.3866C119.872 35.3866 119.263 35.427 118.792 35.5077C118.322 35.5817 117.972 35.7129 117.743 35.9012C117.521 36.0896 117.41 36.3519 117.41 36.6883C117.41 36.9304 117.464 37.1255 117.572 37.2735C117.679 37.4215 117.824 37.5291 118.005 37.5964C118.187 37.6569 118.385 37.6872 118.601 37.6872ZM123.679 38.111C123.47 38.111 123.305 38.0774 123.184 38.0101C123.063 37.9428 122.976 37.8453 122.922 37.7175C122.875 37.5829 122.851 37.4282 122.851 37.2533V33.1264H122.105V32.6925H122.851L122.952 31.2193H123.336V32.6925H124.415V33.1264H123.336V37.1121C123.336 37.3139 123.356 37.4619 123.396 37.556C123.443 37.6435 123.561 37.6872 123.749 37.6872H124.415V37.9697C124.348 38.0034 124.271 38.0303 124.183 38.0505C124.096 38.0706 124.008 38.0841 123.921 38.0908C123.833 38.1043 123.753 38.111 123.679 38.111ZM127.385 38.1211C126.901 38.1211 126.487 38.0235 126.144 37.8285C125.801 37.6267 125.539 37.3206 125.357 36.9103C125.175 36.4999 125.085 35.9786 125.085 35.3463C125.085 34.7072 125.175 34.1859 125.357 33.7823C125.539 33.3719 125.801 33.0692 126.144 32.8741C126.487 32.6723 126.901 32.5714 127.385 32.5714C127.876 32.5714 128.29 32.6723 128.626 32.8741C128.969 33.0692 129.232 33.3719 129.413 33.7823C129.595 34.1859 129.686 34.7072 129.686 35.3463C129.686 35.9786 129.595 36.4999 129.413 36.9103C129.232 37.3206 128.969 37.6267 128.626 37.8285C128.29 38.0235 127.876 38.1211 127.385 38.1211ZM127.385 37.6872C127.755 37.6872 128.071 37.6132 128.334 37.4652C128.603 37.3172 128.808 37.0818 128.949 36.7589C129.097 36.436 129.171 36.0156 129.171 35.4976V35.1949C129.171 34.6702 129.097 34.2498 128.949 33.9336C128.808 33.6107 128.603 33.3753 128.334 33.2273C128.071 33.0793 127.755 33.0053 127.385 33.0053C127.015 33.0053 126.696 33.0793 126.427 33.2273C126.164 33.3753 125.959 33.6107 125.811 33.9336C125.67 34.2498 125.599 34.6702 125.599 35.1949V35.4976C125.599 36.0156 125.67 36.436 125.811 36.7589C125.959 37.0818 126.164 37.3172 126.427 37.4652C126.696 37.6132 127.015 37.6872 127.385 37.6872ZM130.827 38V32.6925H131.191L131.241 33.6107H131.302C131.342 33.4493 131.406 33.2912 131.493 33.1365C131.588 32.9751 131.719 32.8405 131.887 32.7329C132.055 32.6253 132.267 32.5714 132.523 32.5714C132.617 32.5714 132.701 32.5782 132.775 32.5916C132.849 32.6051 132.903 32.6185 132.936 32.632V33.0558H132.654C132.405 33.0558 132.193 33.1062 132.018 33.2071C131.85 33.308 131.712 33.4426 131.604 33.6107C131.503 33.7789 131.429 33.9673 131.382 34.1758C131.335 34.3776 131.312 34.5828 131.312 34.7913V38H130.827Z" fill="#323232"/>
<path d="M45.9914 23.0896C45.9908 27.0981 46.0141 31.1069 45.9852 35.1152C45.9471 40.421 42.6173 44.5827 37.5133 45.7174C36.7548 45.8861 35.9624 45.9738 35.1852 45.9756C27.0464 45.9937 18.907 46.0198 10.7683 45.9743C5.52463 45.9451 1.38638 42.5604 0.271617 37.4893C0.0985432 36.7016 0.0206729 35.8775 0.0188619 35.07C0.000752537 27.0229 -0.0103718 18.9755 0.0142052 10.9281C0.0305037 5.58019 3.39497 1.38488 8.52821 0.266665C9.28751 0.101119 10.081 0.0235189 10.8586 0.0219669C18.9675 0.00489492 27.0764 -0.0173504 35.1852 0.0217082C40.467 0.0470575 44.6502 3.45628 45.7391 8.55226C45.92 9.39888 45.9756 10.2853 45.981 11.1542C46.0056 15.1325 45.9916 19.111 45.9914 23.0896ZM36.0866 25.2515C37.3203 25.1636 38.5541 25.0756 39.8047 24.9864C39.8047 23.7644 39.8047 22.5769 39.8047 21.3562C38.5396 21.3562 37.3299 21.3562 36.1039 21.3562C36.1039 22.7054 36.1039 23.9882 36.1005 25.2668C34.7832 25.265 33.4656 25.2634 32.1483 25.2616C32.1483 23.9807 32.1483 22.6998 32.1483 21.4147C30.8395 21.4147 29.6251 21.4147 28.4141 21.4147C28.4141 22.6884 28.4141 23.8982 28.4141 25.2432C29.7188 25.2432 30.9419 25.2432 32.1682 25.2404C32.1912 26.4965 32.2143 27.7525 32.2373 29.0086C30.9828 29.0086 29.7284 29.0086 28.3774 29.0086C28.3774 30.0353 28.3774 31.0136 28.3774 32.0953C26.0095 32.0953 23.736 32.0953 21.4371 32.0953C21.4371 34.7647 21.4371 37.3273 21.4371 39.9003C22.7017 39.9003 23.893 39.9003 25.1757 39.9003C25.1757 38.5713 25.1757 37.2919 25.1757 36.1046C27.5669 36.1046 29.8647 36.1046 32.1651 36.1015C32.1651 37.3193 32.1651 38.5369 32.1651 39.7821C33.5756 39.7821 34.7904 39.7821 36.0977 39.7821C36.0977 38.5045 36.0977 37.2841 36.0977 35.952C37.4342 35.952 38.6793 35.952 39.9239 35.952C39.9239 33.5674 39.9239 31.2976 39.9239 29.0226C38.647 29.0226 37.4308 29.0226 36.1305 29.0226C36.1305 31.3278 36.1305 33.5723 36.1305 35.9008C35.3591 35.9008 34.6709 35.8721 33.9861 35.9093C33.3717 35.9427 32.7614 36.0482 32.1493 36.122C32.1685 33.7404 32.1879 31.3591 32.2065 28.9763C33.4514 28.9763 34.6965 28.9763 36.0866 28.9763C36.0866 27.6214 36.0866 26.4365 36.0866 25.2515ZM6.13518 17.3824C10.0039 17.3824 13.8105 17.3824 17.6246 17.3824C17.6246 13.5668 17.6246 9.82283 17.6246 6.07424C13.7598 6.07424 9.97489 6.07424 6.13518 6.07424C6.13518 9.87017 6.13518 13.6172 6.13518 17.3824ZM28.4343 6.07528C28.4343 9.86888 28.4343 13.6126 28.4343 17.3852C32.2926 17.3852 36.0951 17.3852 39.9074 17.3852C39.9074 13.5748 39.9074 9.83292 39.9074 6.07528C36.0527 6.07528 32.2712 6.07528 28.4343 6.07528ZM6.07516 39.8201C9.93013 39.8201 13.7334 39.8201 17.5658 39.8201C17.5658 36.0218 17.5658 32.2813 17.5658 28.5298C13.6933 28.5298 9.89107 28.5298 6.07516 28.5298C6.07516 32.3245 6.07516 36.0449 6.07516 39.8201ZM25.1172 28.8568C25.1172 26.2306 25.1172 23.6855 25.1172 21.1141C22.5775 21.1141 20.096 21.1141 17.5904 21.1141C17.5904 22.3728 17.5904 23.5632 17.5904 24.8638C18.855 24.8638 20.0724 24.8638 21.3768 24.8638C21.3768 26.2515 21.3768 27.5319 21.3768 28.8568C22.6597 28.8568 23.8519 28.8568 25.1172 28.8568ZM21.5256 9.80757C21.5256 12.4491 21.5256 14.9858 21.5256 17.5094C22.8085 17.5094 24.0242 17.5094 25.2408 17.5094C25.2408 14.9072 25.2408 12.3712 25.2408 9.80757C23.9768 9.80757 22.7808 9.80757 21.5256 9.80757ZM9.97023 25.0365C9.97023 23.7368 9.97023 22.5518 9.97023 21.3725C8.69067 21.3725 7.48148 21.3725 6.27307 21.3725C6.27307 22.6377 6.27307 23.8185 6.27307 25.0365C7.53297 25.0365 8.72379 25.0365 9.97023 25.0365Z" fill="#F7F7F7"/>
<path d="M13.73 13.5988C12.4999 13.5988 11.3072 13.5988 10.0435 13.5988C10.0435 12.3893 10.0435 11.1741 10.0435 9.8924C11.2441 9.8924 12.4574 9.8924 13.73 9.8924C13.73 11.1236 13.73 12.3363 13.73 13.5988Z" fill="#F7F7F7"/>
<path d="M32.2978 9.87433C33.5616 9.87433 34.7521 9.87433 35.9999 9.87433C35.9999 11.1095 35.9999 12.2993 35.9999 13.5691C34.7971 13.5691 33.5825 13.5691 32.2978 13.5691C32.2978 12.3842 32.2978 11.1705 32.2978 9.87433Z" fill="#F7F7F7"/>
<path d="M9.98785 36.0363C9.98785 34.766 9.98785 33.5741 9.98785 32.3198C11.2353 32.3198 12.4497 32.3198 13.7181 32.3198C13.7181 33.564 13.7181 34.7774 13.7181 36.0363C12.4766 36.0363 11.2832 36.0363 9.98785 36.0363Z" fill="#F7F7F7"/>
</svg>
